<svg preserveAspectRatio="none" width="100%" height="100%" overflow="visible" style="display: block;" viewBox="0 0 18 18" fill="none" xmlns="http://www.w3.org/2000/svg">
<g id="reset-icon">
<path id="reset" d="M14.3426 0.694384C15.555 -0.70496 17.8543 0.152361 17.8544 2.00395V15.5235C17.8544 17.3752 15.5549 18.2327 14.3426 16.8331L9.85435 11.6504V15.5235C9.85435 17.3752 7.55493 18.2327 6.34263 16.8331L0.488142 10.0733C-0.162714 9.32175 -0.162714 8.20569 0.488142 7.45415L6.34263 0.694384C7.55496 -0.70496 9.85431 0.152361 9.85435 2.00395V5.87602L14.3426 0.694384Z" fill="var(--fill-0, #56544B)" style="fill:#56544B;fill:color(display-p3 0.3373 0.3294 0.2941);fill-opacity:1;"/>
<g id="shadow">
<path d="M6.34249 0.694628C7.55482 -0.704716 9.85417 0.152605 9.85421 2.0042V3.0042C9.85417 1.15261 7.55482 0.295284 6.34249 1.69463L0.487999 8.45439C0.279817 8.69483 0.139139 8.9728 0.0641708 9.26396C-0.0952907 8.64501 0.0454348 7.96553 0.487999 7.45439L6.34249 0.694628Z" fill="var(--fill-0, #4C4A42)" style="fill:#4C4A42;fill:color(display-p3 0.2980 0.2902 0.2588);fill-opacity:1;"/>
<path d="M14.3425 0.694628C15.5548 -0.704716 17.8542 0.152605 17.8542 2.0042V3.0042C17.8542 1.15261 15.5548 0.295284 14.3425 1.69463L9.85421 6.87627V5.87627L14.3425 0.694628Z" fill="var(--fill-0, #4C4A42)" style="fill:#4C4A42;fill:color(display-p3 0.2980 0.2902 0.2588);fill-opacity:1;"/>
</g>
</g>
</svg>
