<svg preserveAspectRatio="none" width="100%" height="100%" overflow="visible" style="display: block;" viewBox="0 0 79 20" fill="none" xmlns="http://www.w3.org/2000/svg">
<g id="Logo">
<mask id="path-1-outside-1_376_978" maskUnits="userSpaceOnUse" x="-0.7" y="-0.7" width="80" height="20" fill="black">
<rect fill="white" x="-0.7" y="-0.7" width="80" height="20"/>
<path fill-rule="evenodd" clip-rule="evenodd" d="M48.4392 0.3C50.0933 0.3 51.4453 0.4761 52.4538 0.865717C53.4426 1.24776 54.213 1.80464 54.6763 2.57673C55.1141 3.30632 55.3205 4.15145 55.3205 5.0875V14.1707C55.3205 15.0898 55.1125 15.9304 54.6809 16.6738L54.6788 16.6775L54.6763 16.6815C54.213 17.4535 53.4426 18.0104 52.4538 18.3925C51.4453 18.7821 50.0933 18.9582 48.4392 18.9582C46.8045 18.9582 45.4633 18.7818 44.4555 18.3925C43.4667 18.0104 42.6963 17.4535 42.233 16.6815L42.2265 16.671L42.2207 16.6602C41.8143 15.9193 41.6195 15.0837 41.6195 14.1707V5.0875C41.6195 4.15754 41.8129 3.3174 42.225 2.59028L42.233 2.57673C42.6963 1.80464 43.4667 1.24776 44.4555 0.865717C45.4633 0.476351 46.8045 0.300001 48.4392 0.3ZM48.4392 1.86935C46.9539 1.86935 45.851 2.0314 45.0921 2.32051L45.0859 2.32297L45.0797 2.32513C44.3094 2.60026 43.8458 2.96539 43.5942 3.37526C43.3318 3.83763 43.1889 4.40112 43.1889 5.0875V14.1707C43.1889 14.8307 43.3296 15.3971 43.5963 15.8857C43.8502 16.2975 44.316 16.6711 45.0841 16.9651C45.8478 17.2369 46.9542 17.3888 48.4392 17.3889C49.9458 17.3889 51.0618 17.2366 51.8249 16.9651C52.5977 16.6694 53.0644 16.293 53.3173 15.8783C53.6019 15.3906 53.7512 14.8272 53.7512 14.1707V5.0875C53.7512 4.40419 53.5994 3.84382 53.3194 3.38265C53.0688 2.96988 52.6044 2.60186 51.8295 2.32513L51.8234 2.32297L51.8172 2.32051C51.059 2.03167 49.9463 1.86935 48.4392 1.86935Z"/>
<path fill-rule="evenodd" clip-rule="evenodd" d="M8.68998 0.669549C9.47101 0.669561 10.1823 0.89603 10.6138 1.51089C10.9387 1.95186 11.2284 2.49117 11.4878 3.11719L13.6124 8.13628L13.6185 8.15106L13.6241 8.16646C13.7992 8.64809 13.9304 9.14954 14.0186 9.6699C14.1316 10.1919 14.1855 10.7594 14.1855 11.3689V18.5579H12.6164V13.2619H1.86904V18.5579H0.3V11.3689C0.3 10.7648 0.343026 10.2043 0.432422 9.69023L0.434269 9.68007L0.436425 9.6699C0.544924 9.14911 0.68641 8.6477 0.861406 8.16646L0.866333 8.15291L2.83695 3.10303L2.83757 3.10179C3.07823 2.48919 3.35918 1.95525 3.6866 1.51089C4.13905 0.896879 4.86734 0.669564 5.67231 0.669549H8.68998ZM5.67231 2.23859C5.16515 2.23861 4.97619 2.37928 4.89441 2.49512C4.68629 2.78996 4.48296 3.18162 4.29051 3.68199L4.28928 3.68476L2.32297 8.72324C2.19131 9.10082 2.0769 9.50984 1.98052 9.95107C1.90706 10.3788 1.86904 10.851 1.86904 11.3689V11.6926H12.6164V11.3689C12.6164 10.8454 12.5775 10.3686 12.5025 9.93721C12.4273 9.50475 12.3153 9.10614 12.1687 8.73957L10.049 3.73218C9.83502 3.22641 9.61925 2.8276 9.40629 2.52591L9.40137 2.51914L9.39675 2.51206C9.3013 2.36892 9.12329 2.2386 8.68998 2.23859H5.67231Z"/>
<path d="M33.3213 2.23859H28.6102V16.9888H33.3213V18.5579H22.2684V16.9888H27.0408V2.23859H22.2684V0.669549H33.3213V2.23859Z"/>
<path fill-rule="evenodd" clip-rule="evenodd" d="M65.5684 0.638753C65.7851 0.638753 65.968 0.717941 66.1009 0.797659C66.2371 0.879389 66.3624 0.986504 66.4763 1.10038L66.4895 1.11362L76.7307 12.6349V0.669549H78.3V18.5579H76.7307V14.9957L66.1375 3.1138V18.5579H64.5682V1.63869C64.5682 1.41832 64.6238 1.13715 64.8454 0.915606C65.0669 0.69407 65.3481 0.63876 65.5684 0.638753Z"/>
</mask>
<path fill-rule="evenodd" clip-rule="evenodd" d="M48.4392 0.3C50.0933 0.3 51.4453 0.4761 52.4538 0.865717C53.4426 1.24776 54.213 1.80464 54.6763 2.57673C55.1141 3.30632 55.3205 4.15145 55.3205 5.0875V14.1707C55.3205 15.0898 55.1125 15.9304 54.6809 16.6738L54.6788 16.6775L54.6763 16.6815C54.213 17.4535 53.4426 18.0104 52.4538 18.3925C51.4453 18.7821 50.0933 18.9582 48.4392 18.9582C46.8045 18.9582 45.4633 18.7818 44.4555 18.3925C43.4667 18.0104 42.6963 17.4535 42.233 16.6815L42.2265 16.671L42.2207 16.6602C41.8143 15.9193 41.6195 15.0837 41.6195 14.1707V5.0875C41.6195 4.15754 41.8129 3.3174 42.225 2.59028L42.233 2.57673C42.6963 1.80464 43.4667 1.24776 44.4555 0.865717C45.4633 0.476351 46.8045 0.300001 48.4392 0.3ZM48.4392 1.86935C46.9539 1.86935 45.851 2.0314 45.0921 2.32051L45.0859 2.32297L45.0797 2.32513C44.3094 2.60026 43.8458 2.96539 43.5942 3.37526C43.3318 3.83763 43.1889 4.40112 43.1889 5.0875V14.1707C43.1889 14.8307 43.3296 15.3971 43.5963 15.8857C43.8502 16.2975 44.316 16.6711 45.0841 16.9651C45.8478 17.2369 46.9542 17.3888 48.4392 17.3889C49.9458 17.3889 51.0618 17.2366 51.8249 16.9651C52.5977 16.6694 53.0644 16.293 53.3173 15.8783C53.6019 15.3906 53.7512 14.8272 53.7512 14.1707V5.0875C53.7512 4.40419 53.5994 3.84382 53.3194 3.38265C53.0688 2.96988 52.6044 2.60186 51.8295 2.32513L51.8234 2.32297L51.8172 2.32051C51.059 2.03167 49.9463 1.86935 48.4392 1.86935Z" fill="var(--fill-0, #191F22)" style="fill:#191F22;fill:color(display-p3 0.0980 0.1216 0.1333);fill-opacity:1;"/>
<path fill-rule="evenodd" clip-rule="evenodd" d="M8.68998 0.669549C9.47101 0.669561 10.1823 0.89603 10.6138 1.51089C10.9387 1.95186 11.2284 2.49117 11.4878 3.11719L13.6124 8.13628L13.6185 8.15106L13.6241 8.16646C13.7992 8.64809 13.9304 9.14954 14.0186 9.6699C14.1316 10.1919 14.1855 10.7594 14.1855 11.3689V18.5579H12.6164V13.2619H1.86904V18.5579H0.3V11.3689C0.3 10.7648 0.343026 10.2043 0.432422 9.69023L0.434269 9.68007L0.436425 9.6699C0.544924 9.14911 0.68641 8.6477 0.861406 8.16646L0.866333 8.15291L2.83695 3.10303L2.83757 3.10179C3.07823 2.48919 3.35918 1.95525 3.6866 1.51089C4.13905 0.896879 4.86734 0.669564 5.67231 0.669549H8.68998ZM5.67231 2.23859C5.16515 2.23861 4.97619 2.37928 4.89441 2.49512C4.68629 2.78996 4.48296 3.18162 4.29051 3.68199L4.28928 3.68476L2.32297 8.72324C2.19131 9.10082 2.0769 9.50984 1.98052 9.95107C1.90706 10.3788 1.86904 10.851 1.86904 11.3689V11.6926H12.6164V11.3689C12.6164 10.8454 12.5775 10.3686 12.5025 9.93721C12.4273 9.50475 12.3153 9.10614 12.1687 8.73957L10.049 3.73218C9.83502 3.22641 9.61925 2.8276 9.40629 2.52591L9.40137 2.51914L9.39675 2.51206C9.3013 2.36892 9.12329 2.2386 8.68998 2.23859H5.67231Z" fill="var(--fill-0, #191F22)" style="fill:#191F22;fill:color(display-p3 0.0980 0.1216 0.1333);fill-opacity:1;"/>
<path d="M33.3213 2.23859H28.6102V16.9888H33.3213V18.5579H22.2684V16.9888H27.0408V2.23859H22.2684V0.669549H33.3213V2.23859Z" fill="var(--fill-0, #191F22)" style="fill:#191F22;fill:color(display-p3 0.0980 0.1216 0.1333);fill-opacity:1;"/>
<path fill-rule="evenodd" clip-rule="evenodd" d="M65.5684 0.638753C65.7851 0.638753 65.968 0.717941 66.1009 0.797659C66.2371 0.879389 66.3624 0.986504 66.4763 1.10038L66.4895 1.11362L76.7307 12.6349V0.669549H78.3V18.5579H76.7307V14.9957L66.1375 3.1138V18.5579H64.5682V1.63869C64.5682 1.41832 64.6238 1.13715 64.8454 0.915606C65.0669 0.69407 65.3481 0.63876 65.5684 0.638753Z" fill="var(--fill-0, #191F22)" style="fill:#191F22;fill:color(display-p3 0.0980 0.1216 0.1333);fill-opacity:1;"/>
<path fill-rule="evenodd" clip-rule="evenodd" d="M48.4392 0.3C50.0933 0.3 51.4453 0.4761 52.4538 0.865717C53.4426 1.24776 54.213 1.80464 54.6763 2.57673C55.1141 3.30632 55.3205 4.15145 55.3205 5.0875V14.1707C55.3205 15.0898 55.1125 15.9304 54.6809 16.6738L54.6788 16.6775L54.6763 16.6815C54.213 17.4535 53.4426 18.0104 52.4538 18.3925C51.4453 18.7821 50.0933 18.9582 48.4392 18.9582C46.8045 18.9582 45.4633 18.7818 44.4555 18.3925C43.4667 18.0104 42.6963 17.4535 42.233 16.6815L42.2265 16.671L42.2207 16.6602C41.8143 15.9193 41.6195 15.0837 41.6195 14.1707V5.0875C41.6195 4.15754 41.8129 3.3174 42.225 2.59028L42.233 2.57673C42.6963 1.80464 43.4667 1.24776 44.4555 0.865717C45.4633 0.476351 46.8045 0.300001 48.4392 0.3ZM48.4392 1.86935C46.9539 1.86935 45.851 2.0314 45.0921 2.32051L45.0859 2.32297L45.0797 2.32513C44.3094 2.60026 43.8458 2.96539 43.5942 3.37526C43.3318 3.83763 43.1889 4.40112 43.1889 5.0875V14.1707C43.1889 14.8307 43.3296 15.3971 43.5963 15.8857C43.8502 16.2975 44.316 16.6711 45.0841 16.9651C45.8478 17.2369 46.9542 17.3888 48.4392 17.3889C49.9458 17.3889 51.0618 17.2366 51.8249 16.9651C52.5977 16.6694 53.0644 16.293 53.3173 15.8783C53.6019 15.3906 53.7512 14.8272 53.7512 14.1707V5.0875C53.7512 4.40419 53.5994 3.84382 53.3194 3.38265C53.0688 2.96988 52.6044 2.60186 51.8295 2.32513L51.8234 2.32297L51.8172 2.32051C51.059 2.03167 49.9463 1.86935 48.4392 1.86935Z" stroke="var(--stroke-0, #191F22)" style="stroke:#191F22;stroke:color(display-p3 0.0980 0.1216 0.1333);stroke-opacity:1;" stroke-width="0.6" mask="url(#path-1-outside-1_376_978)"/>
<path fill-rule="evenodd" clip-rule="evenodd" d="M8.68998 0.669549C9.47101 0.669561 10.1823 0.89603 10.6138 1.51089C10.9387 1.95186 11.2284 2.49117 11.4878 3.11719L13.6124 8.13628L13.6185 8.15106L13.6241 8.16646C13.7992 8.64809 13.9304 9.14954 14.0186 9.6699C14.1316 10.1919 14.1855 10.7594 14.1855 11.3689V18.5579H12.6164V13.2619H1.86904V18.5579H0.3V11.3689C0.3 10.7648 0.343026 10.2043 0.432422 9.69023L0.434269 9.68007L0.436425 9.6699C0.544924 9.14911 0.68641 8.6477 0.861406 8.16646L0.866333 8.15291L2.83695 3.10303L2.83757 3.10179C3.07823 2.48919 3.35918 1.95525 3.6866 1.51089C4.13905 0.896879 4.86734 0.669564 5.67231 0.669549H8.68998ZM5.67231 2.23859C5.16515 2.23861 4.97619 2.37928 4.89441 2.49512C4.68629 2.78996 4.48296 3.18162 4.29051 3.68199L4.28928 3.68476L2.32297 8.72324C2.19131 9.10082 2.0769 9.50984 1.98052 9.95107C1.90706 10.3788 1.86904 10.851 1.86904 11.3689V11.6926H12.6164V11.3689C12.6164 10.8454 12.5775 10.3686 12.5025 9.93721C12.4273 9.50475 12.3153 9.10614 12.1687 8.73957L10.049 3.73218C9.83502 3.22641 9.61925 2.8276 9.40629 2.52591L9.40137 2.51914L9.39675 2.51206C9.3013 2.36892 9.12329 2.2386 8.68998 2.23859H5.67231Z" stroke="var(--stroke-0, #191F22)" style="stroke:#191F22;stroke:color(display-p3 0.0980 0.1216 0.1333);stroke-opacity:1;" stroke-width="0.6" mask="url(#path-1-outside-1_376_978)"/>
<path d="M33.3213 2.23859H28.6102V16.9888H33.3213V18.5579H22.2684V16.9888H27.0408V2.23859H22.2684V0.669549H33.3213V2.23859Z" stroke="var(--stroke-0, #191F22)" style="stroke:#191F22;stroke:color(display-p3 0.0980 0.1216 0.1333);stroke-opacity:1;" stroke-width="0.6" mask="url(#path-1-outside-1_376_978)"/>
<path fill-rule="evenodd" clip-rule="evenodd" d="M65.5684 0.638753C65.7851 0.638753 65.968 0.717941 66.1009 0.797659C66.2371 0.879389 66.3624 0.986504 66.4763 1.10038L66.4895 1.11362L76.7307 12.6349V0.669549H78.3V18.5579H76.7307V14.9957L66.1375 3.1138V18.5579H64.5682V1.63869C64.5682 1.41832 64.6238 1.13715 64.8454 0.915606C65.0669 0.69407 65.3481 0.63876 65.5684 0.638753Z" stroke="var(--stroke-0, #191F22)" style="stroke:#191F22;stroke:color(display-p3 0.0980 0.1216 0.1333);stroke-opacity:1;" stroke-width="0.6" mask="url(#path-1-outside-1_376_978)"/>
</g>
</svg>
