<svg width="113" height="27" viewBox="0 0 113 27" fill="none" xmlns="http://www.w3.org/2000/svg">
<mask id="path-1-outside-1_381_1057" maskUnits="userSpaceOnUse" x="27" y="2.91174" width="86" height="22" fill="black">
<rect fill="white" x="27" y="2.91174" width="86" height="22"/>
<path fill-rule="evenodd" clip-rule="evenodd" d="M79.8423 3.91174C81.6236 3.91174 83.0796 4.10051 84.1656 4.51814C85.2305 4.92766 86.0602 5.52459 86.5591 6.3522C87.0305 7.13426 87.2529 8.04017 87.2529 9.04354V18.7799C87.2529 19.7652 87.0289 20.6662 86.5641 21.463L86.5617 21.467L86.5591 21.4713C86.0602 22.2989 85.2305 22.8958 84.1656 23.3053C83.0796 23.723 81.6236 23.9117 79.8423 23.9117C78.0818 23.9117 76.6374 23.7227 75.5521 23.3053C74.4872 22.8958 73.6575 22.2989 73.1586 21.4713L73.1516 21.4601L73.1453 21.4485C72.7078 20.6543 72.498 19.7586 72.498 18.7799V9.04354C72.498 8.0467 72.7062 7.14614 73.15 6.36673L73.1586 6.3522C73.6575 5.52458 74.4872 4.92766 75.5521 4.51814C76.6374 4.10078 78.0818 3.91174 79.8423 3.91174ZM79.8423 5.59395C78.2427 5.59395 77.0549 5.76765 76.2376 6.07755L76.231 6.0802L76.2243 6.08251C75.3947 6.37743 74.8955 6.76882 74.6245 7.20816C74.3419 7.70378 74.188 8.3078 74.188 9.04354V18.7799C74.188 19.4874 74.3396 20.0945 74.6268 20.6183C74.9002 21.0597 75.4018 21.4602 76.229 21.7753C77.0514 22.0667 78.243 22.2295 79.8423 22.2295C81.4647 22.2295 82.6666 22.0664 83.4884 21.7753C84.3206 21.4583 84.8232 21.0549 85.0955 20.6104C85.402 20.0875 85.5628 19.4837 85.5628 18.7799V9.04354C85.5628 8.31108 85.3994 7.71042 85.0979 7.21608C84.828 6.77363 84.3278 6.37914 83.4934 6.08251L83.4867 6.0802L83.4801 6.07755C82.6635 5.76794 81.4653 5.59395 79.8423 5.59395Z"/>
<path fill-rule="evenodd" clip-rule="evenodd" d="M37.0354 4.30787C37.8765 4.30788 38.6425 4.55064 39.1072 5.20971C39.4571 5.6824 39.769 6.26049 40.0484 6.93153L42.3364 12.3116L42.343 12.3274L42.349 12.3439C42.5376 12.8602 42.6789 13.3977 42.7738 13.9555C42.8955 14.515 42.9536 15.1234 42.9536 15.7767V23.4826H41.2639V17.8058H29.6897V23.4826H28V15.7767C28 15.1291 28.0463 14.5283 28.1426 13.9773L28.1446 13.9664L28.1469 13.9555C28.2638 13.3972 28.4161 12.8598 28.6046 12.3439L28.6099 12.3294L30.7321 6.91635L30.7328 6.91503C30.9919 6.25837 31.2945 5.68603 31.6471 5.20971C32.1344 4.55155 32.9187 4.30788 33.7856 4.30787H37.0354ZM33.7856 5.98975C33.2394 5.98976 33.0359 6.14055 32.9478 6.26472C32.7237 6.58077 32.5047 7.00059 32.2975 7.53694L32.2961 7.53991L30.1786 12.9407C30.0368 13.3455 29.9136 13.7839 29.8098 14.2569C29.7307 14.7154 29.6897 15.2215 29.6897 15.7767V16.1236H41.2639V15.7767C41.2639 15.2155 41.2219 14.7045 41.1411 14.242C41.0601 13.7785 40.9395 13.3512 40.7816 12.9582L38.4989 7.59075C38.2685 7.04861 38.0361 6.62111 37.8068 6.29773L37.8015 6.29047L37.7965 6.28288C37.6937 6.12945 37.502 5.98976 37.0354 5.98975H33.7856Z"/>
<path d="M63.5614 5.98975H58.4879V21.8007H63.5614V23.4826H51.6583V21.8007H56.7978V5.98975H51.6583V4.30787H63.5614V5.98975Z"/>
<path fill-rule="evenodd" clip-rule="evenodd" d="M98.2891 4.27486C98.5224 4.27486 98.7194 4.35974 98.8625 4.44519C99.0092 4.5328 99.1441 4.64762 99.2668 4.76968L99.281 4.78388L110.31 17.1337V4.30787H112V23.4826H110.31V19.6643L98.902 6.9279V23.4826H97.2119V5.3467C97.2119 5.11049 97.2718 4.80909 97.5104 4.57162C97.749 4.33415 98.0518 4.27486 98.2891 4.27486Z"/>
</mask>
<path fill-rule="evenodd" clip-rule="evenodd" d="M79.8423 3.91174C81.6236 3.91174 83.0796 4.10051 84.1656 4.51814C85.2305 4.92766 86.0602 5.52459 86.5591 6.3522C87.0305 7.13426 87.2529 8.04017 87.2529 9.04354V18.7799C87.2529 19.7652 87.0289 20.6662 86.5641 21.463L86.5617 21.467L86.5591 21.4713C86.0602 22.2989 85.2305 22.8958 84.1656 23.3053C83.0796 23.723 81.6236 23.9117 79.8423 23.9117C78.0818 23.9117 76.6374 23.7227 75.5521 23.3053C74.4872 22.8958 73.6575 22.2989 73.1586 21.4713L73.1516 21.4601L73.1453 21.4485C72.7078 20.6543 72.498 19.7586 72.498 18.7799V9.04354C72.498 8.0467 72.7062 7.14614 73.15 6.36673L73.1586 6.3522C73.6575 5.52458 74.4872 4.92766 75.5521 4.51814C76.6374 4.10078 78.0818 3.91174 79.8423 3.91174ZM79.8423 5.59395C78.2427 5.59395 77.0549 5.76765 76.2376 6.07755L76.231 6.0802L76.2243 6.08251C75.3947 6.37743 74.8955 6.76882 74.6245 7.20816C74.3419 7.70378 74.188 8.3078 74.188 9.04354V18.7799C74.188 19.4874 74.3396 20.0945 74.6268 20.6183C74.9002 21.0597 75.4018 21.4602 76.229 21.7753C77.0514 22.0667 78.243 22.2295 79.8423 22.2295C81.4647 22.2295 82.6666 22.0664 83.4884 21.7753C84.3206 21.4583 84.8232 21.0549 85.0955 20.6104C85.402 20.0875 85.5628 19.4837 85.5628 18.7799V9.04354C85.5628 8.31108 85.3994 7.71042 85.0979 7.21608C84.828 6.77363 84.3278 6.37914 83.4934 6.08251L83.4867 6.0802L83.4801 6.07755C82.6635 5.76794 81.4653 5.59395 79.8423 5.59395Z" fill="#191F22" style="fill:#191F22;fill:color(display-p3 0.0980 0.1216 0.1333);fill-opacity:1;"/>
<path fill-rule="evenodd" clip-rule="evenodd" d="M37.0354 4.30787C37.8765 4.30788 38.6425 4.55064 39.1072 5.20971C39.4571 5.6824 39.769 6.26049 40.0484 6.93153L42.3364 12.3116L42.343 12.3274L42.349 12.3439C42.5376 12.8602 42.6789 13.3977 42.7738 13.9555C42.8955 14.515 42.9536 15.1234 42.9536 15.7767V23.4826H41.2639V17.8058H29.6897V23.4826H28V15.7767C28 15.1291 28.0463 14.5283 28.1426 13.9773L28.1446 13.9664L28.1469 13.9555C28.2638 13.3972 28.4161 12.8598 28.6046 12.3439L28.6099 12.3294L30.7321 6.91635L30.7328 6.91503C30.9919 6.25837 31.2945 5.68603 31.6471 5.20971C32.1344 4.55155 32.9187 4.30788 33.7856 4.30787H37.0354ZM33.7856 5.98975C33.2394 5.98976 33.0359 6.14055 32.9478 6.26472C32.7237 6.58077 32.5047 7.00059 32.2975 7.53694L32.2961 7.53991L30.1786 12.9407C30.0368 13.3455 29.9136 13.7839 29.8098 14.2569C29.7307 14.7154 29.6897 15.2215 29.6897 15.7767V16.1236H41.2639V15.7767C41.2639 15.2155 41.2219 14.7045 41.1411 14.242C41.0601 13.7785 40.9395 13.3512 40.7816 12.9582L38.4989 7.59075C38.2685 7.04861 38.0361 6.62111 37.8068 6.29773L37.8015 6.29047L37.7965 6.28288C37.6937 6.12945 37.502 5.98976 37.0354 5.98975H33.7856Z" fill="#191F22" style="fill:#191F22;fill:color(display-p3 0.0980 0.1216 0.1333);fill-opacity:1;"/>
<path d="M63.5614 5.98975H58.4879V21.8007H63.5614V23.4826H51.6583V21.8007H56.7978V5.98975H51.6583V4.30787H63.5614V5.98975Z" fill="#191F22" style="fill:#191F22;fill:color(display-p3 0.0980 0.1216 0.1333);fill-opacity:1;"/>
<path fill-rule="evenodd" clip-rule="evenodd" d="M98.2891 4.27486C98.5224 4.27486 98.7194 4.35974 98.8625 4.44519C99.0092 4.5328 99.1441 4.64762 99.2668 4.76968L99.281 4.78388L110.31 17.1337V4.30787H112V23.4826H110.31V19.6643L98.902 6.9279V23.4826H97.2119V5.3467C97.2119 5.11049 97.2718 4.80909 97.5104 4.57162C97.749 4.33415 98.0518 4.27486 98.2891 4.27486Z" fill="#191F22" style="fill:#191F22;fill:color(display-p3 0.0980 0.1216 0.1333);fill-opacity:1;"/>
<path fill-rule="evenodd" clip-rule="evenodd" d="M79.8423 3.91174C81.6236 3.91174 83.0796 4.10051 84.1656 4.51814C85.2305 4.92766 86.0602 5.52459 86.5591 6.3522C87.0305 7.13426 87.2529 8.04017 87.2529 9.04354V18.7799C87.2529 19.7652 87.0289 20.6662 86.5641 21.463L86.5617 21.467L86.5591 21.4713C86.0602 22.2989 85.2305 22.8958 84.1656 23.3053C83.0796 23.723 81.6236 23.9117 79.8423 23.9117C78.0818 23.9117 76.6374 23.7227 75.5521 23.3053C74.4872 22.8958 73.6575 22.2989 73.1586 21.4713L73.1516 21.4601L73.1453 21.4485C72.7078 20.6543 72.498 19.7586 72.498 18.7799V9.04354C72.498 8.0467 72.7062 7.14614 73.15 6.36673L73.1586 6.3522C73.6575 5.52458 74.4872 4.92766 75.5521 4.51814C76.6374 4.10078 78.0818 3.91174 79.8423 3.91174ZM79.8423 5.59395C78.2427 5.59395 77.0549 5.76765 76.2376 6.07755L76.231 6.0802L76.2243 6.08251C75.3947 6.37743 74.8955 6.76882 74.6245 7.20816C74.3419 7.70378 74.188 8.3078 74.188 9.04354V18.7799C74.188 19.4874 74.3396 20.0945 74.6268 20.6183C74.9002 21.0597 75.4018 21.4602 76.229 21.7753C77.0514 22.0667 78.243 22.2295 79.8423 22.2295C81.4647 22.2295 82.6666 22.0664 83.4884 21.7753C84.3206 21.4583 84.8232 21.0549 85.0955 20.6104C85.402 20.0875 85.5628 19.4837 85.5628 18.7799V9.04354C85.5628 8.31108 85.3994 7.71042 85.0979 7.21608C84.828 6.77363 84.3278 6.37914 83.4934 6.08251L83.4867 6.0802L83.4801 6.07755C82.6635 5.76794 81.4653 5.59395 79.8423 5.59395Z" stroke="#191F22" style="stroke:#191F22;stroke:color(display-p3 0.0980 0.1216 0.1333);stroke-opacity:1;" stroke-width="0.6" mask="url(#path-1-outside-1_381_1057)"/>
<path fill-rule="evenodd" clip-rule="evenodd" d="M37.0354 4.30787C37.8765 4.30788 38.6425 4.55064 39.1072 5.20971C39.4571 5.6824 39.769 6.26049 40.0484 6.93153L42.3364 12.3116L42.343 12.3274L42.349 12.3439C42.5376 12.8602 42.6789 13.3977 42.7738 13.9555C42.8955 14.515 42.9536 15.1234 42.9536 15.7767V23.4826H41.2639V17.8058H29.6897V23.4826H28V15.7767C28 15.1291 28.0463 14.5283 28.1426 13.9773L28.1446 13.9664L28.1469 13.9555C28.2638 13.3972 28.4161 12.8598 28.6046 12.3439L28.6099 12.3294L30.7321 6.91635L30.7328 6.91503C30.9919 6.25837 31.2945 5.68603 31.6471 5.20971C32.1344 4.55155 32.9187 4.30788 33.7856 4.30787H37.0354ZM33.7856 5.98975C33.2394 5.98976 33.0359 6.14055 32.9478 6.26472C32.7237 6.58077 32.5047 7.00059 32.2975 7.53694L32.2961 7.53991L30.1786 12.9407C30.0368 13.3455 29.9136 13.7839 29.8098 14.2569C29.7307 14.7154 29.6897 15.2215 29.6897 15.7767V16.1236H41.2639V15.7767C41.2639 15.2155 41.2219 14.7045 41.1411 14.242C41.0601 13.7785 40.9395 13.3512 40.7816 12.9582L38.4989 7.59075C38.2685 7.04861 38.0361 6.62111 37.8068 6.29773L37.8015 6.29047L37.7965 6.28288C37.6937 6.12945 37.502 5.98976 37.0354 5.98975H33.7856Z" stroke="#191F22" style="stroke:#191F22;stroke:color(display-p3 0.0980 0.1216 0.1333);stroke-opacity:1;" stroke-width="0.6" mask="url(#path-1-outside-1_381_1057)"/>
<path d="M63.5614 5.98975H58.4879V21.8007H63.5614V23.4826H51.6583V21.8007H56.7978V5.98975H51.6583V4.30787H63.5614V5.98975Z" stroke="#191F22" style="stroke:#191F22;stroke:color(display-p3 0.0980 0.1216 0.1333);stroke-opacity:1;" stroke-width="0.6" mask="url(#path-1-outside-1_381_1057)"/>
<path fill-rule="evenodd" clip-rule="evenodd" d="M98.2891 4.27486C98.5224 4.27486 98.7194 4.35974 98.8625 4.44519C99.0092 4.5328 99.1441 4.64762 99.2668 4.76968L99.281 4.78388L110.31 17.1337V4.30787H112V23.4826H110.31V19.6643L98.902 6.9279V23.4826H97.2119V5.3467C97.2119 5.11049 97.2718 4.80909 97.5104 4.57162C97.749 4.33415 98.0518 4.27486 98.2891 4.27486Z" stroke="#191F22" style="stroke:#191F22;stroke:color(display-p3 0.0980 0.1216 0.1333);stroke-opacity:1;" stroke-width="0.6" mask="url(#path-1-outside-1_381_1057)"/>
<path opacity="0.18" d="M0 25.6237C0 26.3513 0.589848 26.9412 1.31746 26.9412H15.6825C16.4102 26.9412 17 26.3513 17 25.6237V16.6759H0V25.6237Z" fill="#191F22" style="fill:#191F22;fill:color(display-p3 0.0980 0.1216 0.1333);fill-opacity:1;"/>
<path opacity="0.18" d="M0 1.31746C0 0.589848 0.589848 0 1.31746 0H15.6825C16.4102 0 17 0.589848 17 1.31746V10.2652H0V1.31746Z" fill="#191F22" style="fill:#191F22;fill:color(display-p3 0.0980 0.1216 0.1333);fill-opacity:1;"/>
<path opacity="0.25" d="M0 23.7572C0 24.4849 0.589848 25.0747 1.31746 25.0747H15.6825C16.4102 25.0747 17 24.4849 17 23.7572V16.6759H0V23.7572Z" fill="#191F22" style="fill:#191F22;fill:color(display-p3 0.0980 0.1216 0.1333);fill-opacity:1;"/>
<path opacity="0.25" d="M0 3.18392C0 2.4563 0.589848 1.86646 1.31746 1.86646H15.6825C16.4102 1.86646 17 2.4563 17 3.18392V10.2653H0V3.18392Z" fill="#191F22" style="fill:#191F22;fill:color(display-p3 0.0980 0.1216 0.1333);fill-opacity:1;"/>
<path d="M0 21.9458C0 22.6735 0.589848 23.2633 1.31746 23.2633H15.6825C16.4102 23.2633 17 22.6735 17 21.9458V14.4313C17 14.1551 16.7761 13.9313 16.5 13.9313H0.5C0.223858 13.9313 0 14.1551 0 14.4313V21.9458Z" fill="#191F22" style="fill:#191F22;fill:color(display-p3 0.0980 0.1216 0.1333);fill-opacity:1;"/>
<path d="M0 4.99532C0 4.2677 0.589848 3.67786 1.31746 3.67786H15.6825C16.4102 3.67786 17 4.2677 17 4.99532V12.5099C17 12.786 16.7761 13.0099 16.5 13.0099H0.5C0.223858 13.0099 0 12.786 0 12.5099V4.99532Z" fill="#191F22" style="fill:#191F22;fill:color(display-p3 0.0980 0.1216 0.1333);fill-opacity:1;"/>
</svg>
