<svg preserveAspectRatio="none" width="100%" height="100%" overflow="visible" style="display: block;" viewBox="0 0 248 60" fill="none" xmlns="http://www.w3.org/2000/svg">
<g id="Union">
<path fill-rule="evenodd" clip-rule="evenodd" d="M152.654 0C157.9 0 162.187 0.55843 165.385 1.79395C168.52 3.00543 170.964 4.77137 172.433 7.21973C173.821 9.53333 174.476 12.2133 174.476 15.1816V43.9854C174.476 46.9 173.816 49.5656 172.447 51.9229L172.44 51.9346L172.433 51.9473C170.964 54.3956 168.52 56.1616 165.385 57.373C162.187 58.6085 157.9 59.167 152.654 59.167C147.47 59.167 143.217 58.6078 140.021 57.373C136.886 56.1616 134.443 54.3956 132.974 51.9473L132.953 51.9141L132.935 51.8799C131.646 49.5303 131.028 46.8805 131.028 43.9854V15.1816C131.028 12.2326 131.642 9.56847 132.948 7.2627L132.974 7.21973C134.443 4.77135 136.886 3.00544 140.021 1.79395C143.217 0.559227 147.47 3.91412e-06 152.654 0ZM152.654 4.97656C147.944 4.97657 144.447 5.49043 142.04 6.40723L142.021 6.41504L142.001 6.42188C139.558 7.29436 138.088 8.45223 137.29 9.75195C136.458 11.2182 136.005 13.0051 136.005 15.1816V43.9854C136.005 46.0784 136.451 47.8743 137.297 49.4238C138.102 50.7296 139.579 51.9145 142.015 52.8467C144.436 53.7087 147.945 54.1904 152.654 54.1904C157.432 54.1904 160.971 53.7078 163.391 52.8467C165.841 51.9089 167.321 50.7154 168.123 49.4004C169.025 47.8537 169.499 46.0673 169.499 43.9854V15.1816C169.499 13.0148 169.018 11.2378 168.13 9.77539C167.335 8.46646 165.862 7.29943 163.405 6.42188L163.386 6.41504L163.366 6.40723C160.962 5.49129 157.433 4.97656 152.654 4.97656Z" fill="var(--fill-0, #191F22)" style="fill:#191F22;fill:color(display-p3 0.0980 0.1216 0.1333);fill-opacity:1;"/>
<path fill-rule="evenodd" clip-rule="evenodd" d="M26.6055 1.17188C29.0822 1.17192 31.3377 1.89007 32.7061 3.83984C33.7364 5.23822 34.655 6.94843 35.4775 8.93359L42.2148 24.8496L42.2344 24.8965L42.252 24.9453C42.8073 26.4726 43.2232 28.0628 43.5029 29.7129C43.8613 31.3682 44.0322 33.1679 44.0322 35.1006V57.8975H39.0566V41.1035H4.97559V57.8975H0V35.1006C0 33.185 0.136438 31.4074 0.419922 29.7773L0.425781 29.7451L0.432617 29.7129C0.776679 28.0614 1.22534 26.4714 1.78027 24.9453L1.7959 24.9023L8.04492 8.88867L8.04688 8.88477C8.81005 6.94215 9.70097 5.24895 10.7393 3.83984C12.174 1.89276 14.4835 1.17192 17.0361 1.17188H26.6055ZM17.0361 6.14746C15.4279 6.14751 14.8287 6.5936 14.5693 6.96094C13.9094 7.8959 13.2646 9.1379 12.6543 10.7246L12.6504 10.7334L6.41504 26.7109C5.99752 27.9083 5.63473 29.2053 5.3291 30.6045C5.09613 31.961 4.97559 33.4582 4.97559 35.1006V36.127H39.0566V35.1006C39.0566 33.4405 38.9332 31.9286 38.6953 30.5605C38.4568 29.1892 38.1017 27.9251 37.6367 26.7627L30.915 10.8838C30.2365 9.27995 29.5523 8.01527 28.877 7.05859L28.8613 7.03711L28.8467 7.01465C28.544 6.56074 27.9795 6.1475 26.6055 6.14746H17.0361Z" fill="var(--fill-0, #191F22)" style="fill:#191F22;fill:color(display-p3 0.0980 0.1216 0.1333);fill-opacity:1;"/>
<path d="M104.714 6.14746H89.7744V52.9219H104.714V57.8975H69.6641V52.9219H84.7979V6.14746H69.6641V1.17188H104.714V6.14746Z" fill="var(--fill-0, #191F22)" style="fill:#191F22;fill:color(display-p3 0.0980 0.1216 0.1333);fill-opacity:1;"/>
<path fill-rule="evenodd" clip-rule="evenodd" d="M206.973 1.07422C207.66 1.07422 208.24 1.32533 208.661 1.57812C209.093 1.8373 209.49 2.17697 209.852 2.53809L209.894 2.58008L242.369 39.1152V1.17188H247.346V57.8975H242.369V46.6016L208.777 8.92285V57.8975H203.801V4.24512C203.801 3.54631 203.977 2.65468 204.68 1.95215C205.382 1.24963 206.274 1.07424 206.973 1.07422Z" fill="var(--fill-0, #191F22)" style="fill:#191F22;fill:color(display-p3 0.0980 0.1216 0.1333);fill-opacity:1;"/>
</g>
</svg>
