<svg width="24" height="24" viewBox="0 0 24 24" fill="none" xmlns="http://www.w3.org/2000/svg">
<path d="M16.3426 3.69438C17.555 2.29504 19.8543 3.15236 19.8544 5.00395V18.5235C19.8544 20.3752 17.5549 21.2327 16.3426 19.8331L11.8544 14.6504V18.5235C11.8544 20.3752 9.55493 21.2327 8.34263 19.8331L2.48814 13.0733C1.83729 12.3217 1.83729 11.2057 2.48814 10.4541L8.34263 3.69438C9.55496 2.29504 11.8543 3.15236 11.8544 5.00395V8.87602L16.3426 3.69438Z" fill="#56544B" style="fill:#56544B;fill:color(display-p3 0.3373 0.3294 0.2941);fill-opacity:1;"/>
<path d="M8.34249 3.69463C9.55482 2.29528 11.8542 3.15261 11.8542 5.0042V6.0042C11.8542 4.15261 9.55482 3.29528 8.34249 4.69463L2.488 11.4544C2.27982 11.6948 2.13914 11.9728 2.06417 12.264C1.90471 11.645 2.04543 10.9655 2.488 10.4544L8.34249 3.69463Z" fill="#4C4A42" style="fill:#4C4A42;fill:color(display-p3 0.2980 0.2902 0.2588);fill-opacity:1;"/>
<path d="M16.3425 3.69463C17.5548 2.29528 19.8542 3.15261 19.8542 5.0042V6.0042C19.8542 4.15261 17.5548 3.29528 16.3425 4.69463L11.8542 9.87627V8.87627L16.3425 3.69463Z" fill="#4C4A42" style="fill:#4C4A42;fill:color(display-p3 0.2980 0.2902 0.2588);fill-opacity:1;"/>
</svg>

